<svg xmlns="http://www.w3.org/2000/svg" viewBox="0 0 550 546"><style>.s0{fill:#6e63a4}.s1{fill:#e0675c}.s2{fill:#edb950}.s3{fill:#61b852}</style><path class="s0" d="M276 212s86-85 86-124c0-34-39-61-86-61s-86 27-86 61c0 39 86 124 86 124"/><path class="s1" d="M212 286s-86-86-124-86c-34 0-61 39-61 86s27 86 61 86c39 0 124-86 124-86"/><path class="s2" d="M276 334s-86 86-86 124c0 34 39 61 86 61s86-27 86-61c0-39-86-124-86-124"/><path class="s3" d="M340 286s86 86 124 86c34 0 61-39 61-86s-27-86-61-86c-39 0-124 86-124 86"/></svg>