<svg xmlns="http://www.w3.org/2000/svg" viewBox="0 0 400 401"><style>.a,.b{fill-rule:evenodd;clip-rule:evenodd}.a{fill:#2c2d34}.b{fill:#fff}.c{fill:#231f20}</style><path class="a" d="m29 192-17-32 28-62 36-3 13-30 45-20 32 10 16-21h60l19 21 28-7 51 32 2 29 30 9 18 61-19 29 13 32-23 57-34 4-6 32-58 22-22-8-22 20h-67l-19-22-23 7-54-29-1-36-35-14-9-55z"/><path class="b" d="m69 192-21-34 15-29 37-3 14-36 22-10 39 14 24-28h26l24 25 34-8 24 14 4 38 33 9 10 30-21 31 15 37-9 24-40 7-6 35-34 14-30-9-23 21h-38l-24-27-31 9-25-16v-36l-37-15-4-24z"/><path class="c" d="m252 138 29 29-1 51-29 28-82 1-29-28-1-52 29-29z"/><path fill="#fff" d="m183 214-10-10v-24l10-10h55l10 10v24l-10 9z"/></svg>