<svg xmlns="http://www.w3.org/2000/svg" viewBox="0 0 400 236"><style>.a{fill:#1b1b1b;fill-rule:evenodd}</style><path class="a" d="M103 84c-14 5-23 17-25 29-3 22 16 42 34 45 16 2 28-10 52-33 81-77 91-83 104-86 29-6 69 4 90 34 26 38 6 83 5 86-20 31-52 48-84 44-25-3-41-17-48-23-3 3-5 6-8 10 3 3 41 36 90 24 42-11 68-50 71-86 1-7 3-31-12-56-21-35-64-52-99-46-26 4-49 26-96 71-38 36-51 53-66 49-14-4-25-25-18-38 6-10 24-15 42-7 2-2 4-5 6-7-10-10-25-14-38-10m32 83c46-17 64-78 134-112 21-10 52 1 70 20 15 16 17 36 17 44 1 25-15 52-42 63-24 10-52 4-71-14 3-3 5-6 7-9 5 3 22 16 44 12 31-5 55-40 48-67-6-24-37-45-62-38-46 13-57 58-126 109-16 12-29 15-43 14-31-3-64-39-61-77 0-4 3-30 26-46 24-17 59-16 87 4l-10 11c-27-22-64-17-80 4-21 27-4 71 24 83 15 7 31 2 38-1m131-79c5-3 17-9 29-6 16 4 33 20 31 41-1 13-9 25-22 31-14 6-31 3-42-8 2-2 5-5 7-8 1 1 13 11 27 6 13-5 21-20 16-37-2-4-6-10-13-12-11-4-23 1-32 8-45 34-73 93-129 110-41 13-102-20-116-73C9 94 41 37 90 29c50-9 89 19 93 22-3 4-7 7-10 11-39-30-90-27-119 2-20 20-27 52-19 79 11 37 48 63 91 61 55-8 95-87 140-116"/></svg>