<svg xmlns="http://www.w3.org/2000/svg" viewBox="0 0 410 410" style="enable-background:new 0 0 410 410" xml:space="preserve"><style>.st0{fill:#ff5207}.st1,.st2{fill:#e01914;fill-rule:evenodd;clip-rule:evenodd}.st2{fill:#1389c4}</style><rect x="169" y="161" class="st0" width="53" height="51"/><path class="st1" d="M391 90c-5 20-41 153-158 197-19 7-79 30-129 3-73-40-72-154-80-153s-8 107 58 172c35 34 96 61 148 43 81-27 111-148 153-138 12 3 17 14 23 12-5-45-10-91-15-136"/><rect x="81" y="96" class="st2" width="54" height="54"/><rect x="222" y="87" class="st2" width="74" height="74"/></svg>