<svg xmlns="http://www.w3.org/2000/svg" viewBox="0 0 400 482"><style>.a,.b{fill-rule:evenodd}.a{fill:#363535}.b{fill:#d0311e}</style><path class="a" d="M223 7c-87 3-136 94-139 99-23 0-41 6-43 15-3 10 16 27 48 37-25 40-49 57-60 83C6 293 0 337 8 363c9 32 39 46 32 65-6 17-32 16-33 23 0 17 164 21 260 23 34 1 79 1 90-21 11-23 3-48-3-81-19-107 51-143 35-224C375 81 306 4 223 7m-57 256c-32 85 19 164-5 178-20 12-82-33-103-95-31-94 53-181 56-185 22-72 77-104 106-93 24 9 39 52 33 100-28 16-69 46-87 95"/><path class="a" d="M186 106c-8-5-18-4-25 1-9 8-9 23-1 31 9 9 26 6 32-5 5-9 2-21-7-27"/><path class="b" d="M390 148c-24 6-49 11-77 15-91 12-171 4-231-9-11 22-29 41-40 63 66 18 129 29 169 33 88 8 150 13 175-23 17-23 11-56 4-79"/></svg>